<svg width="22" height="22" viewBox="0 0 22 22" fill="none" xmlns="http://www.w3.org/2000/svg">
<g clip-path="url(#clip0_50_1566)">
<path d="M7.66559 0.724094C5.46745 1.48665 3.57177 2.93401 2.25701 4.85357C0.94225 6.77313 0.277701 9.06372 0.360976 11.3889C0.444251 13.714 1.27096 15.9512 2.71968 17.7718C4.16839 19.5924 6.16275 20.9004 8.40981 21.5038C10.2316 21.9739 12.1402 21.9945 13.9717 21.5639C15.6308 21.1913 17.1647 20.3941 18.4232 19.2505C19.7331 18.0239 20.6838 16.4635 21.1732 14.7371C21.7052 12.8596 21.7999 10.8852 21.45 8.9655H11.22V13.2091H17.1445C17.0261 13.8859 16.7724 14.5319 16.3985 15.1084C16.0246 15.6848 15.5383 16.18 14.9686 16.5641C14.2451 17.0426 13.4296 17.3646 12.5743 17.5094C11.7166 17.6689 10.8368 17.6689 9.97903 17.5094C9.10966 17.3297 8.28726 16.9708 7.56418 16.4558C6.40256 15.6335 5.53035 14.4654 5.072 13.118C4.6059 11.7454 4.6059 10.2573 5.072 8.88472C5.39826 7.92259 5.93762 7.04658 6.64981 6.32206C7.46483 5.47772 8.49666 4.87418 9.63211 4.57766C10.7676 4.28114 11.9627 4.3031 13.0865 4.64113C13.9644 4.91061 14.7672 5.38146 15.4309 6.01613C16.0989 5.35154 16.7658 4.68524 17.4315 4.01722C17.7753 3.658 18.15 3.31597 18.4886 2.94816C17.4755 2.00538 16.2863 1.27179 14.9892 0.789407C12.6271 -0.0682672 10.0426 -0.0913164 7.66559 0.724094Z" fill="#0D0D0D"/>
<path d="M7.6617 0.723464C10.0385 -0.0925001 12.623 -0.0700577 14.9853 0.787058C16.2826 1.27271 17.4713 2.00984 18.483 2.95612C18.1392 3.32393 17.7765 3.66768 17.4259 4.02518C16.759 4.69091 16.0927 5.35435 15.427 6.0155C14.7633 5.38083 13.9605 4.90998 13.0826 4.6405C11.9592 4.30128 10.7641 4.27806 9.62833 4.57337C8.49258 4.86867 7.46011 5.4711 6.6442 6.31456C5.93201 7.03907 5.39265 7.91509 5.06639 8.87721L1.50342 6.11862C2.77874 3.58959 4.98689 1.65507 7.6617 0.723464Z" fill="#E64B40"/>
<path d="M0.556382 8.85171C0.747887 7.9026 1.06583 6.98347 1.50169 6.1189L5.06466 8.88437C4.59856 10.257 4.59856 11.745 5.06466 13.1176C3.87758 14.0343 2.68992 14.9556 1.50169 15.8814C0.410547 13.7094 0.0777661 11.2348 0.556382 8.85171Z" fill="#FFC813"/>
<path d="M11.2151 8.96289H21.4451C21.7951 10.8826 21.7004 12.857 21.1684 14.7345C20.679 16.4609 19.7282 18.0213 18.4184 19.2479C17.2686 18.3507 16.1136 17.4604 14.9637 16.5632C15.5338 16.1787 16.0203 15.683 16.3942 15.1059C16.7681 14.5288 17.0217 13.8822 17.1397 13.2048H11.2151C11.2134 11.792 11.2151 10.3774 11.2151 8.96289Z" fill="#6A8BC4"/>
<path d="M1.50342 15.8812C2.69165 14.9645 3.8793 14.0433 5.06639 13.1174C5.52565 14.4653 6.39911 15.6335 7.56201 16.4552C8.28734 16.9679 9.11152 17.3238 9.98201 17.5002C10.8398 17.6597 11.7196 17.6597 12.5773 17.5002C13.4326 17.3555 14.2481 17.0335 14.9715 16.5549C16.1214 17.4521 17.2764 18.3424 18.4262 19.2396C17.1679 20.3838 15.634 21.1816 13.9747 21.5548C12.1432 21.9853 10.2345 21.9647 8.41279 21.4946C6.97197 21.1099 5.62614 20.4317 4.45967 19.5026C3.22502 18.5224 2.21662 17.2871 1.50342 15.8812Z" fill="#37B24C"/>
</g>
<defs>
<clipPath id="clip0_50_1566">
<rect width="22" height="22" fill="white"/>
</clipPath>
</defs>
</svg>
